<?xml version="1.0" encoding="UTF-8"?> <svg xmlns="http://www.w3.org/2000/svg" id="Layer_1" viewBox="0 0 365.7 117.3"><defs><style>.cls-1,.cls-2{stroke-width:0px;}.cls-2{fill:#ed1b2e;}</style></defs><path class="cls-1" d="m2,111.8c.6.4,1.5.7,2.4.7,1.4,0,2.1-.7,2.1-1.7s-.5-1.5-1.9-2c-1.7-.6-2.7-1.5-2.7-2.9,0-1.6,1.3-2.8,3.3-2.8,1,0,1.8.2,2.3.5l-.4,1.1c-.3-.2-1-.5-1.9-.5-1.4,0-1.9.8-1.9,1.5,0,1,.6,1.4,2,2,1.7.7,2.6,1.5,2.6,3,0,1.6-1.2,2.9-3.6,2.9-1,0-2.1-.3-2.6-.7l.3-1.1Z"></path><path class="cls-1" d="m15.7,108.6h-4v3.7h4.4v1.1h-5.8v-10.2h5.5v1.1h-4.2v3.2h4v1.1h.1Z"></path><path class="cls-1" d="m18.6,103.3c.7-.1,1.6-.2,2.5-.2,1.4,0,2.3.3,3,.8.5.5.8,1.2.8,1.9,0,1.4-.9,2.2-1.9,2.6h0c.8.3,1.3,1,1.5,2.1.3,1.4.6,2.4.8,2.8h-1.4c-.2-.3-.4-1.2-.7-2.4-.3-1.4-.9-1.9-2-2h-1.2v4.4h-1.3v-10h-.1Zm1.3,4.7h1.4c1.4,0,2.3-.8,2.3-1.9,0-1.3-1-1.9-2.4-1.9-.6,0-1.1.1-1.3.1v3.7Z"></path><path class="cls-1" d="m30,113.4l-3.3-10.2h1.4l1.6,5c.4,1.4.8,2.6,1.1,3.8h0c.3-1.2.7-2.5,1.2-3.8l1.7-5.1h1.4l-3.7,10.2h-1.4v.1Z"></path><path class="cls-1" d="m38.3,103.2v10.2h-1.3v-10.2h1.3Z"></path><path class="cls-1" d="m48.6,113.1c-.5.2-1.5.5-2.7.5-2.9,0-5.1-1.8-5.1-5.2,0-3.2,2.2-5.4,5.3-5.4,1.3,0,2.1.3,2.4.5l-.3,1.1c-.5-.2-1.2-.4-2.1-.4-2.4,0-4,1.5-4,4.2,0,2.5,1.4,4.1,3.9,4.1.8,0,1.6-.2,2.2-.4l.4,1Z"></path><path class="cls-1" d="m56.3,108.6h-4v3.7h4.4v1.1h-5.8v-10.2h5.5v1.1h-4.1v3.2h4v1.1Z"></path><path class="cls-1" d="m68.3,102.1v15.2h-1v-15.2h1Z"></path><path class="cls-1" d="m88,114.9c-1.4-.4-2.7-.8-3.9-1.2-.2-.1-.4-.2-.6-.2-2.4-.1-4.5-1.9-4.5-5.2s2-5.4,4.8-5.4,4.6,2.2,4.6,5.2c0,2.6-1.2,4.3-2.9,4.9v.1c1,.3,2.1.5,3,.7l-.5,1.1Zm-1.1-6.6c0-2-1.1-4.2-3.2-4.2s-3.3,2.1-3.3,4.3,1.2,4.1,3.2,4.1c2.1,0,3.3-1.9,3.3-4.2Z"></path><path class="cls-1" d="m92.1,103.2v6.1c0,2.3,1,3.3,2.4,3.3,1.5,0,2.5-1,2.5-3.3v-6.1h1.3v6c0,3.1-1.7,4.4-3.9,4.4s-3.7-1.2-3.7-4.4v-6h1.4Z"></path><path class="cls-1" d="m102.5,110.2l-1.1,3.2h-1.4l3.5-10.2h1.6l3.5,10.2h-1.4l-1.1-3.2h-3.6Zm3.3-1l-1-2.9c-.2-.7-.4-1.3-.5-1.9h0c-.2.6-.3,1.2-.5,1.9l-1,3h3v-.1Z"></path><path class="cls-1" d="m110.9,103.2h1.3v9.1h4.4v1.1h-5.7s0-10.2,0-10.2Z"></path><path class="cls-1" d="m120.1,103.2v10.2h-1.3v-10.2h1.3Z"></path><path class="cls-1" d="m125.1,104.3h-3.1v-1.1h7.6v1.1h-3.1v9.1h-1.3v-9.1h-.1Z"></path><path class="cls-1" d="m134.2,113.4v-4.3l-3.2-5.9h1.5l1.4,2.8c.4.8.7,1.4,1,2.1h0c.3-.7.6-1.3,1-2.1l1.5-2.8h1.5l-3.4,5.9v4.4h-1.3v-.1Z"></path><path class="cls-1" d="m150,102.1v15.2h-1v-15.2h1Z"></path><path class="cls-1" d="m162.5,103.2v10.2h-1.3v-10.2h1.3Z"></path><path class="cls-1" d="m165.6,113.4v-10.2h1.4l3.3,5.2c.8,1.2,1.4,2.3,1.8,3.3h0c-.1-1.4-.2-2.6-.2-4.2v-4.3h1.2v10.2h-1.3l-3.2-5.2c-.7-1.1-1.4-2.3-1.9-3.4h0c.1,1.3.1,2.5.1,4.2v4.4h-1.2Z"></path><path class="cls-1" d="m178.3,104.3h-3.1v-1.1h7.6v1.1h-3.1v9.1h-1.4v-9.1Z"></path><path class="cls-1" d="m190,108.6h-4v3.7h4.4v1.1h-5.8v-10.2h5.5v1.1h-4.2v3.2h4v1.1h.1Z"></path><path class="cls-1" d="m200.7,113c-.6.2-1.8.6-3.1.6-1.5,0-2.8-.4-3.8-1.4-.9-.8-1.4-2.2-1.4-3.8,0-3.1,2.1-5.3,5.5-5.3,1.2,0,2.1.3,2.6.5l-.3,1.1c-.5-.2-1.2-.4-2.3-.4-2.5,0-4.1,1.5-4.1,4.1s1.6,4.1,3.9,4.1c.9,0,1.5-.1,1.8-.3v-3.1h-2.2v-1.1h3.4v5Z"></path><path class="cls-1" d="m203.5,103.3c.7-.1,1.6-.2,2.5-.2,1.4,0,2.3.3,3,.8.5.5.8,1.2.8,1.9,0,1.4-.9,2.2-1.9,2.6h0c.8.3,1.3,1,1.5,2.1.3,1.4.6,2.4.8,2.8h-1.4c-.2-.3-.4-1.2-.7-2.4-.3-1.4-.9-1.9-2-2h-1.2v4.4h-1.3v-10h-.1Zm1.3,4.7h1.4c1.4,0,2.3-.8,2.3-1.9,0-1.3-1-1.9-2.4-1.9-.6,0-1.1.1-1.3.1v3.7Z"></path><path class="cls-1" d="m213.7,103.2v10.2h-1.3v-10.2h1.3Z"></path><path class="cls-1" d="m218.7,104.3h-3.1v-1.1h7.6v1.1h-3.1v9.1h-1.3v-9.1h-.1Z"></path><path class="cls-1" d="m227.8,113.4v-4.3l-3.2-5.9h1.5l1.4,2.8c.4.8.7,1.4,1,2.1h0c.3-.7.6-1.3,1-2.1l1.5-2.8h1.5l-3.4,5.9v4.4h-1.3v-.1Z"></path><path class="cls-1" d="m243.6,102.1v15.2h-1v-15.2h1Z"></path><path class="cls-1" d="m254.6,111.8c.6.4,1.5.7,2.4.7,1.4,0,2.1-.7,2.1-1.7s-.5-1.5-1.9-2c-1.7-.6-2.7-1.5-2.7-2.9,0-1.6,1.3-2.8,3.3-2.8,1,0,1.8.2,2.3.5l-.4,1.1c-.3-.2-1-.5-1.9-.5-1.4,0-1.9.8-1.9,1.5,0,1,.6,1.4,2,2,1.7.7,2.6,1.5,2.6,3,0,1.6-1.2,2.9-3.6,2.9-1,0-2.1-.3-2.6-.7l.3-1.1Z"></path><path class="cls-1" d="m264.4,103.2v6.1c0,2.3,1,3.3,2.4,3.3,1.5,0,2.5-1,2.5-3.3v-6.1h1.3v6c0,3.1-1.7,4.4-3.9,4.4s-3.7-1.2-3.7-4.4v-6h1.4Z"></path><path class="cls-1" d="m273.5,111.8c.6.4,1.5.7,2.4.7,1.4,0,2.1-.7,2.1-1.7s-.5-1.5-1.9-2c-1.7-.6-2.7-1.5-2.7-2.9,0-1.6,1.3-2.8,3.3-2.8,1,0,1.8.2,2.3.5l-.4,1.1c-.3-.2-1-.5-1.9-.5-1.4,0-1.9.8-1.9,1.5,0,1,.6,1.4,2,2,1.7.7,2.6,1.5,2.6,3,0,1.6-1.2,2.9-3.6,2.9-1,0-2.1-.3-2.6-.7l.3-1.1Z"></path><path class="cls-1" d="m283.8,104.3h-3.1v-1.1h7.6v1.1h-3.1v9.1h-1.3v-9.1h-.1Z"></path><path class="cls-1" d="m290.7,110.2l-1.1,3.2h-1.3l3.5-10.2h1.6l3.5,10.2h-1.4l-1.1-3.2h-3.7Zm3.4-1l-1-2.9c-.2-.7-.4-1.3-.5-1.9h0c-.2.6-.3,1.2-.5,1.9l-1,3h3v-.1Z"></path><path class="cls-1" d="m300.4,103.2v10.2h-1.3v-10.2h1.3Z"></path><path class="cls-1" d="m303.5,113.4v-10.2h1.4l3.3,5.2c.8,1.2,1.4,2.3,1.8,3.3h0c-.1-1.4-.2-2.6-.2-4.2v-4.3h1.2v10.2h-1.3l-3.2-5.2c-.7-1.1-1.4-2.3-1.9-3.4h0c.1,1.3.1,2.5.1,4.2v4.4h-1.2Z"></path><path class="cls-1" d="m315.9,110.2l-1.1,3.2h-1.4l3.5-10.2h1.6l3.5,10.2h-1.4l-1.1-3.2h-3.6Zm3.4-1l-1-2.9c-.2-.7-.4-1.3-.5-1.9h0c-.2.6-.3,1.2-.5,1.9l-1,3h3v-.1Z"></path><path class="cls-1" d="m324.3,103.3c.6-.1,1.5-.2,2.4-.2,1.3,0,2.2.2,2.8.7.5.4.8,1,.8,1.8,0,1-.7,1.9-1.7,2.2h0c1,.2,2.1,1,2.1,2.6,0,.9-.3,1.5-.9,2-.7.7-1.9,1-3.5,1-.9,0-1.6-.1-2-.1v-10h0Zm1.3,4.2h1.2c1.4,0,2.2-.7,2.2-1.7,0-1.2-.9-1.7-2.2-1.7-.6,0-1,0-1.2.1v3.3Zm0,4.9c.3,0,.6.1,1.1.1,1.4,0,2.6-.5,2.6-2,0-1.4-1.2-2-2.6-2h-1.1v3.9Z"></path><path class="cls-1" d="m334.6,103.2v10.2h-1.3v-10.2h1.3Z"></path><path class="cls-1" d="m337.7,103.2h1.3v9.1h4.4v1.1h-5.7v-10.2h0Z"></path><path class="cls-1" d="m346.9,103.2v10.2h-1.3v-10.2h1.3Z"></path><path class="cls-1" d="m351.9,104.3h-3.1v-1.1h7.6v1.1h-3.1v9.1h-1.3v-9.1h-.1Z"></path><path class="cls-1" d="m361,113.4v-4.3l-3.2-5.9h1.5l1.4,2.8c.4.8.7,1.4,1,2.1h0c.3-.7.6-1.3,1-2.1l1.5-2.8h1.5l-3.4,5.9v4.4h-1.3v-.1Z"></path><path class="cls-2" d="m343.4,49.9c6.9-3.6,13.9-10.7,13.9-24.8,0-17.4-13.7-25.1-27.2-25.1h-48.3v23.5l3.2-.8c3-.8,11.4-2.7,15.2-2.7h28.1c6,0,8.1,3.7,8.1,6.9s-2.1,7-8.1,7h-46.5v55.8h20.9v-36.1h17.5c1.3,2.6,18.2,36.1,18.2,36.1h25.8c-.1-.1-18.6-35.7-20.8-39.8Z"></path><path class="cls-2" d="m264.4,41.6c4.8-3.8,7.6-9.6,7.6-16.4,0-17.5-13.7-25.2-27.3-25.2h-48.3v23.5l3.2-.8c3-.8,11.6-2.7,15.2-2.7h28.1c5.9,0,8.1,3.7,8.1,6.9s-2.1,7-8.1,7h-46.5v55.8h51.4c17,0,28.9-11.1,28.9-27,.1-9.4-4.5-17-12.3-21.1Zm-8.6,20.1c0,4.5-4.2,8-9.7,8h-28.7v-16h28.7c5.6-.1,9.7,3.3,9.7,8Z"></path><path class="cls-2" d="m145.7,0h-36v23.5l3.2-.8c4.1-1.1,11.6-2.7,14-2.7h18.8c14.7,0,25.3,10.5,25.3,24.9s-10.6,24.9-25.3,24.9h-16.2v-35.9h-19.8v55.8h36c25.7,0,45.1-19.3,45.1-44.8,0-22.4-15.5-44.9-45.1-44.9Z"></path><path class="cls-2" d="m67.9,64.8c.1.2,6.9,10,10.7,15.6l-20.3,11.6c-2.9-6.1-8-16.8-8.1-17-.2.1-2.4,1.4-3.7,2.1v-28.3l24.8,14.1c-1.3.7-3.2,1.8-3.4,1.9Zm-23.2,12.3v-28.3l-24.9,14.1c1.2.7,3.2,1.8,3.4,1.9-.1.2-6.9,10-10.7,15.6l20.4,11.6c2.9-6.1,8-16.8,8.1-17,.2.1,2.4,1.3,3.7,2.1Zm27.4-39.7v-4.2l-24.8,14.1,24.8,14.1v-3.8c.2,0,12.2.9,19,1.4v-23.2c-6.7.6-18.7,1.5-19,1.6Zm-52.2-5.7l24.8,14.1v-28.3c-1.3.7-3.5,2-3.7,2.1-.1-.2-5.2-10.9-8.1-17L12.5,14.2c3.8,5.6,10.6,15.4,10.7,15.6-.2.1-2.1,1.2-3.3,1.9Zm-1,29.8l24.9-14.2-24.8-14.2v3.8c-.2,0-12.2-.9-19-1.4v23.2c6.8-.5,18.8-1.5,19-1.5,0,.2,0,2.8-.1,4.3Zm27.5-44v28.3l24.9-14.1c-1.2-.7-3.2-1.8-3.4-1.9.1-.2,6.9-10,10.7-15.6L58.2,2.6c-2.9,6-8,16.8-8.1,17-.2-.1-2.4-1.4-3.7-2.1Z"></path></svg> 